<?xml version="1.0" encoding="UTF-8"?>
<svg version="1.1" xmlns="http://www.w3.org/2000/svg" width="304" height="261">
<path d="M0 0 C100.32 0 200.64 0 304 0 C304 86.13 304 172.26 304 261 C203.68 261 103.36 261 0 261 C0 174.87 0 88.74 0 0 Z " fill="#FEA727" transform="translate(0,0)"/>
<path d="M0 0 C25.08 0 50.16 0 76 0 C76 86.13 76 172.26 76 261 C50.92 261 25.84 261 0 261 C1.43429423 256.69711731 2.53950968 253.76244844 4.765625 250.0078125 C5.31863281 249.06808594 5.87164062 248.12835938 6.44140625 247.16015625 C7.03824219 246.15855469 7.63507813 245.15695313 8.25 244.125 C9.5261903 241.96102515 10.80222775 239.79696015 12.078125 237.6328125 C13.05749023 235.97813965 13.05749023 235.97813965 14.05664062 234.29003906 C17.05962818 229.20608676 20.02913626 224.10276667 23 219 C24.16776584 216.99727751 25.33573515 214.99467364 26.50390625 212.9921875 C27.08156738 212.00186523 27.65922852 211.01154297 28.25439453 209.99121094 C29.9901159 207.01693706 31.72728925 204.04351578 33.46484375 201.0703125 C34.62250881 199.08860766 35.78006059 197.10683664 36.9375 195.125 C37.51314697 194.13943115 38.08879395 193.1538623 38.68188477 192.13842773 C41.69995521 186.96477257 44.70398681 181.78351211 47.6875 176.58984375 C48.30568604 175.51420166 48.92387207 174.43855957 49.56079102 173.33032227 C50.80505183 171.16375131 52.0477459 168.99627977 53.28881836 166.82788086 C56.54866899 161.15677429 59.87455035 155.53834651 63.31640625 149.9765625 C64.02361758 148.82680224 64.73073156 147.67698209 65.43774414 146.52709961 C66.78489597 144.34553338 68.1442756 142.17145797 69.51733398 140.00610352 C70.12005127 139.02826904 70.72276855 138.05043457 71.34375 137.04296875 C71.88193359 136.18727295 72.42011719 135.33157715 72.97460938 134.44995117 C74.24843052 131.40642851 74.03759908 130.1033673 73 127 C71.83605143 124.55567321 71.83605143 124.55567321 70.33203125 122.10546875 C69.77588135 121.16268066 69.21973145 120.21989258 68.64672852 119.24853516 C68.04143311 118.23839355 67.4361377 117.22825195 66.8125 116.1875 C65.52587775 114.01181567 64.23942399 111.8360317 62.953125 109.66015625 C62.29376953 108.55043457 61.63441406 107.44071289 60.95507812 106.29736328 C57.96524967 101.25482792 55.01348546 96.19033178 52.0625 91.125 C51.48717529 90.13951172 50.91185059 89.15402344 50.3190918 88.13867188 C46.68918597 81.91683911 43.08488487 75.68074706 39.49365234 69.43652344 C33.70747504 59.37610437 27.86499741 49.35288243 21.9375 39.375 C16.61104198 30.40398587 11.28521266 21.43288443 6 12.4375 C5.09109009 10.90198486 5.09109009 10.90198486 4.16381836 9.33544922 C3.6147583 8.39846191 3.06569824 7.46147461 2.5 6.49609375 C2.0153125 5.67294678 1.530625 4.8497998 1.03125 4.00170898 C0 2 0 2 0 0 Z " fill="#FFFEFE" transform="translate(228,0)"/>
<path d="M0 0 C2.92286755 3.65358444 5.1410259 6.76403776 7.3984375 10.76953125 C8.03539551 11.89327148 8.67235352 13.01701172 9.32861328 14.17480469 C9.66185608 14.76724976 9.99509888 15.35969482 10.33843994 15.97009277 C12.11756594 19.13235488 13.91151715 22.28620491 15.703125 25.44140625 C16.06596588 26.08133514 16.42880676 26.72126404 16.80264282 27.38058472 C20.19790146 33.36371206 23.6511531 39.31216845 27.125 45.25 C27.69395996 46.22300049 28.26291992 47.19600098 28.84912109 48.19848633 C29.99313334 50.15401705 31.13749971 52.10934064 32.28222656 54.06445312 C35.19360707 59.03978559 38.09631397 64.02017442 41 69 C42.1666262 71.00002361 43.33329284 73.00002362 44.5 75 C46.83333333 79 49.16666667 83 51.5 87 C52.36794189 88.48777954 52.36794189 88.48777954 53.25341797 90.00561523 C54.40897532 91.98673221 55.56425315 93.96801226 56.71923828 95.94946289 C59.80349246 101.23980948 62.89387838 106.52646432 65.9921875 111.80859375 C66.96671875 113.47245117 66.96671875 113.47245117 67.9609375 115.16992188 C69.21699002 117.31418296 70.47474649 119.45744702 71.734375 121.59960938 C72.29382813 122.55544922 72.85328125 123.51128906 73.4296875 124.49609375 C73.92710449 125.34357178 74.42452148 126.1910498 74.93701172 127.06420898 C76 129 76 129 76 130 C50.92 130 25.84 130 0 130 C0 87.1 0 44.2 0 0 Z " fill="#FFFEFD" transform="translate(0,131)"/>
<path d="M0 0 C24.75 0 49.5 0 75 0 C73.33494328 4.99517016 71.44055257 8.95031055 68.75 13.375 C67.84307686 14.89152473 66.93686795 16.40847674 66.03125 17.92578125 C65.29841797 19.149021 65.29841797 19.149021 64.55078125 20.39697266 C61.74962938 25.09878016 59.00298011 29.83238312 56.25 34.5625 C55.04569926 36.62897989 53.84127074 38.69538531 52.63671875 40.76171875 C52.0339209 41.79603027 51.43112305 42.8303418 50.81005859 43.89599609 C49.04821521 46.91731748 47.28426522 49.93739749 45.51953125 52.95703125 C40.1509075 62.14607512 34.79684011 71.34266319 29.4909668 80.56811523 C21.1207072 95.12161253 12.60207045 109.58257708 4 124 C3.45827148 124.93803467 2.91654297 125.87606934 2.35839844 126.8425293 C1.91012695 127.55449463 1.46185547 128.26645996 1 129 C0.67 129 0.34 129 0 129 C0 86.43 0 43.86 0 0 Z " fill="#FFFEFE" transform="translate(0,0)"/>
<path d="M0 0 C2 0 2 0 4.14453125 2.0546875 C4.58490723 2.51327148 5.0252832 2.97185547 5.47900391 3.44433594 C7.14769119 5.15105751 8.87994592 6.76696213 10.63671875 8.3828125 C35.27581464 31.1223986 35.27581464 31.1223986 36.3984375 38.68359375 C36.34583644 44.86421781 36.21741239 49.77357525 31.60546875 54.3984375 C26.62031594 58.76517895 22.85055855 60.48437428 16.30859375 60.3125 C11.09417229 59.60665615 7.90461319 56.86440816 4.1875 53.3125 C-0.2484539 46.59519838 -0.2905617 38.99897245 -0.1953125 31.15234375 C-0.1924826 30.25504044 -0.18965271 29.35773712 -0.18673706 28.4332428 C-0.17564979 25.60118586 -0.15056747 22.76945939 -0.125 19.9375 C-0.11495537 18.00325981 -0.10583213 16.06901461 -0.09765625 14.13476562 C-0.07574814 9.4230521 -0.04129901 4.71158184 0 0 Z " fill="#F7F5F3" transform="translate(124,157)"/>
<path d="M0 0 C0.94735519 0.00141495 1.89471039 0.0028299 2.87077332 0.00428772 C5.8865377 0.00987014 8.90222693 0.02241943 11.91796875 0.03515625 C13.9667958 0.04017352 16.01562402 0.04473603 18.06445312 0.04882812 C23.07815381 0.05983382 28.09179855 0.07708637 33.10546875 0.09765625 C31.62725259 3.18036458 30.08891098 5.40508948 27.7265625 7.890625 C26.7221814 8.95349731 26.7221814 8.95349731 25.69750977 10.0378418 C24.98651123 10.77945557 24.2755127 11.52106934 23.54296875 12.28515625 C22.45423462 13.42754761 22.45423462 13.42754761 21.34350586 14.59301758 C19.90826826 16.09565983 18.47059196 17.59597723 17.03027344 19.09375 C15.46603309 20.7222742 13.91295617 22.36151574 12.36328125 24.00390625 C0.4898801 36.34210246 0.4898801 36.34210246 -8.58203125 36.72265625 C-14.1898256 36.37852382 -17.42235809 34.67760808 -21.328125 30.6015625 C-25.74539438 25.58364459 -26.36013261 21.44624377 -26.30859375 14.9609375 C-25.47236719 9.17835195 -21.8475123 5.57430046 -17.33203125 2.16015625 C-11.69207479 -0.29828631 -6.04199422 -0.03409009 0 0 Z " fill="#F7F6F4" transform="translate(81.89453125,152.90234375)"/>
<path d="M0 0 C3.68636777 3.68636777 3.98523423 9.47215679 5.125 14.4375 C5.54072266 16.14583008 5.54072266 16.14583008 5.96484375 17.88867188 C9.89981861 34.85946245 9.89981861 34.85946245 6.97412109 41.23583984 C5.23192813 43.97545475 3.48419875 45.6906508 0.75 47.4375 C-8.66018675 49.36231093 -8.66018675 49.36231093 -13.06640625 46.796875 C-16.179931 44.22285454 -18.60604333 41.85189958 -20 38 C-21.17566132 24.60364869 -8.68203551 11.21326791 -1 1 C-0.67 0.67 -0.34 0.34 0 0 Z " fill="#F7F5F2" transform="translate(182,73)"/>
<path d="M0 0 C3.07094387 2.60238749 5.5267465 4.77160557 5.91015625 8.9375 C6.02351225 15.23820433 5.37563272 18.61710036 1.20703125 23.48046875 C-2.01853292 26.16843889 -6.11420975 26.42991854 -10.16015625 26.39453125 C-17.33470184 24.87374228 -23.3607824 19.85453271 -29.29296875 15.73046875 C-30.59834704 14.8402488 -31.90431717 13.95089594 -33.2109375 13.0625 C-36.25810138 10.97956177 -39.28174528 8.86513744 -42.29296875 6.73046875 C-41.29296875 4.73046875 -41.29296875 4.73046875 -39.45458984 4.06030273 C-38.66648926 3.86766846 -37.87838867 3.67503418 -37.06640625 3.4765625 C-36.19886719 3.26193359 -35.33132812 3.04730469 -34.4375 2.82617188 C-33.52355469 2.60896484 -32.60960937 2.39175781 -31.66796875 2.16796875 C-30.33185547 1.83635742 -30.33185547 1.83635742 -28.96875 1.49804688 C-6.97616624 -3.86244298 -6.97616624 -3.86244298 0 0 Z " fill="#F7F5F3" transform="translate(231.29296875,62.26953125)"/>
<path d="M0 0 C2.3125 0.1875 2.3125 0.1875 5 1 C7.68448204 4.33246046 8.36325349 6.76204266 8 11 C9.11375 10.896875 10.2275 10.79375 11.375 10.6875 C18.0547785 10.65177926 23.59782687 14.39855124 29 18 C29.680625 17.505 30.36125 17.01 31.0625 16.5 C34.59465009 14.69634889 37.08636991 14.76978647 41 15 C41.495 16.98 41.495 16.98 42 19 C39.03 20.32 36.06 21.64 33 23 C33 28.94 33 34.88 33 41 C29.27844695 39.13922348 27.07347293 37.41792096 24.0625 34.625 C22.38395991 33.07358273 20.69647043 31.53178994 19 30 C18.32453125 29.26007813 17.6490625 28.52015625 16.953125 27.7578125 C12.17090573 24.91125341 7.15081792 25.32024722 1.6875 25.25 C0.00430664 25.20552734 0.00430664 25.20552734 -1.71289062 25.16015625 C-4.47533207 25.08962583 -7.23693774 25.03684507 -10 25 C-8.53864995 21.06696387 -7.24760453 18.94837729 -4 16.25 C-3.29875 15.65703125 -2.5975 15.0640625 -1.875 14.453125 C0 13 0 13 2 12 C1.45276317 8.62537285 0.9451 6.91765 -1 4 C-0.625 1.8125 -0.625 1.8125 0 0 Z " fill="#F7F5F2" transform="translate(109,122)"/>
<path d="M0 0 C0.99 0 1.98 0 3 0 C2.67 3.3 2.34 6.6 2 10 C2.70125 10.0825 3.4025 10.165 4.125 10.25 C7.70840529 11.18480138 10.08050443 12.74402615 13 15 C13.495 16.485 13.495 16.485 14 18 C12.96359375 18.26554687 11.9271875 18.53109375 10.859375 18.8046875 C9.48952244 19.16122447 8.11973412 19.5180083 6.75 19.875 C6.06808594 20.04902344 5.38617188 20.22304688 4.68359375 20.40234375 C-2.74817911 22.35047838 -5.47513697 24.15121368 -9.625 30.625 C-11.03207135 32.80458111 -12.46882428 34.90128424 -14 37 C-14.66 37 -15.32 37 -16 37 C-17.76615118 32.29026351 -18.48594831 27.96916636 -19 23 C-21.31 22.67 -23.62 22.34 -26 22 C-26 20.68 -26 19.36 -26 18 C-18.57142857 17.85714286 -18.57142857 17.85714286 -15 19 C-14.773125 18.4225 -14.54625 17.845 -14.3125 17.25 C-12.60627699 14.32504627 -10.82485289 12.86183486 -8 11 C-4.6875 10.25 -4.6875 10.25 -2 10 C-2.04125 8.906875 -2.0825 7.81375 -2.125 6.6875 C-2 3 -2 3 0 0 Z " fill="#F7F4EF" transform="translate(186,43)"/>
<path d="M0 0 C0.68102783 0.27328125 1.36205566 0.5465625 2.0637207 0.828125 C5.36526825 2.1457793 8.67283844 3.44769031 11.98046875 4.75 C14.01554217 5.5551742 16.05022025 6.36133806 18.0847168 7.16796875 C19.49121748 7.72449427 20.8984512 8.27917061 22.30639648 8.83203125 C24.34554467 9.63316756 26.38196647 10.44090781 28.41796875 11.25 C29.63250732 11.72953125 30.8470459 12.2090625 32.09838867 12.703125 C35 14 35 14 37 16 C36.00368079 17.04477242 34.97643691 18.06009714 33.9375 19.0625 C33.36902344 19.63097656 32.80054688 20.19945312 32.21484375 20.78515625 C28.96100039 22.5698922 26.42261036 21.94630103 23 21 C19.50492366 19.82030973 16.09875449 18.46421548 12.6875 17.0625 C11.78193359 16.70220703 10.87636719 16.34191406 9.94335938 15.97070312 C3.2675047 13.2675047 3.2675047 13.2675047 1 11 C0.5859375 8.3984375 0.5859375 8.3984375 0.375 5.375 C0.30023438 4.37210938 0.22546875 3.36921875 0.1484375 2.3359375 C0.09945312 1.56507813 0.05046875 0.79421875 0 0 Z " fill="#F7F4F0" transform="translate(83,193)"/>
<path d="M0 0 C2.60893497 0.96061204 5.17847798 1.94959023 7.75 3 C8.43449219 3.27328125 9.11898437 3.5465625 9.82421875 3.828125 C14.86399502 5.86399502 14.86399502 5.86399502 16 7 C16.07205511 8.68608966 16.08386068 10.37500659 16.0625 12.0625 C16.05347656 12.98160156 16.04445313 13.90070313 16.03515625 14.84765625 C16.02355469 15.55792969 16.01195313 16.26820313 16 17 C12.33597797 16.37344935 9.12938799 15.35781607 5.69921875 13.93359375 C4.72275391 13.53076172 3.74628906 13.12792969 2.74023438 12.71289062 C1.73283203 12.29201172 0.72542969 11.87113281 -0.3125 11.4375 C-1.85260742 10.80038086 -1.85260742 10.80038086 -3.42382812 10.15039062 C-5.95092341 9.10429072 -8.47620894 8.05404084 -11 7 C-11 4 -11 4 -8.3125 1.25 C-5.35095356 -1.41309602 -3.7459984 -1.1169503 0 0 Z " fill="#F7F4F0" transform="translate(102,183)"/>
<path d="M0 0 C7.59 2.97 15.18 5.94 23 9 C18.28571429 13.71428571 18.28571429 13.71428571 14 15 C12.68 15 11.36 15 10 15 C9.34 17.31 8.68 19.62 8 22 C6.35 21.67 4.7 21.34 3 21 C3.11859375 20.443125 3.2371875 19.88625 3.359375 19.3125 C4.29503093 13.77341692 3.87417607 10.61688808 0.91015625 5.82421875 C0 4 0 4 0 0 Z " fill="#F7F4EF" transform="translate(84,211)"/>
<path d="M0 0 C1.07657746 7.55492958 1.07657746 7.55492958 -1.30957031 10.7578125 C-3.17104834 12.33537125 -5.07575184 13.67604753 -7.125 15 C-7.79015625 15.47566406 -8.4553125 15.95132813 -9.140625 16.44140625 C-13.00179077 19.09879681 -16.19264526 20.82531414 -21 21 C-23.875 19.5625 -23.875 19.5625 -26 18 C-22.4597981 14.10024635 -18.3427489 11.35233418 -14 8.4375 C-12.5828339 7.47860229 -11.16615229 6.51898808 -9.75 5.55859375 C-8.76386719 4.8931958 -8.76386719 4.8931958 -7.7578125 4.21435547 C-6.34845349 3.24072329 -4.97916975 2.20919235 -3.625 1.16015625 C-2 0 -2 0 0 0 Z " fill="#F7F3EE" transform="translate(221,93)"/>
<path d="M0 0 C0.66 0 1.32 0 2 0 C2 7.26 2 14.52 2 22 C-8.125 18.625 -8.125 18.625 -13 16 C-10.83421668 11.79583237 -8.00622291 8.88981599 -4.64453125 5.6484375 C-2.87401768 3.95301964 -2.87401768 3.95301964 -1.1875 1.5625 C-0.795625 1.046875 -0.40375 0.53125 0 0 Z " fill="#F7F2EB" transform="translate(116,161)"/>
<path d="M0 0 C2.26171875 0.90234375 2.26171875 0.90234375 5.26171875 2.90234375 C5.26171875 3.56234375 5.26171875 4.22234375 5.26171875 4.90234375 C3.64111328 6.23095703 3.64111328 6.23095703 1.39453125 7.72265625 C0.59144531 8.25761719 -0.21164063 8.79257813 -1.0390625 9.34375 C-1.88855469 9.89933594 -2.73804688 10.45492187 -3.61328125 11.02734375 C-4.45503906 11.59066406 -5.29679688 12.15398437 -6.1640625 12.734375 C-12.47152126 16.90234375 -12.47152126 16.90234375 -14.73828125 16.90234375 C-15.06828125 14.26234375 -15.39828125 11.62234375 -15.73828125 8.90234375 C-13.6879136 7.36231651 -11.62565905 5.84620055 -9.55078125 4.33984375 C-8.97263672 3.90220703 -8.39449219 3.46457031 -7.79882812 3.01367188 C-5.09394227 1.07287807 -3.38647207 -0.1207729 0 0 Z " fill="#F7F3EE" transform="translate(208.73828125,87.09765625)"/>
<path d="M0 0 C0.66 0 1.32 0 2 0 C1.85691406 1.26457031 1.85691406 1.26457031 1.7109375 2.5546875 C1.54464844 4.19824219 1.54464844 4.19824219 1.375 5.875 C1.25898438 6.96554688 1.14296875 8.05609375 1.0234375 9.1796875 C1.01570312 10.11039063 1.00796875 11.04109375 1 12 C1.66 12.66 2.32 13.32 3 14 C2.625 16.125 2.625 16.125 2 18 C0.0625 17.1875 0.0625 17.1875 -2 16 C-2.33 15.01 -2.66 14.02 -3 13 C-5.97851562 13.04882812 -5.97851562 13.04882812 -8.95703125 13.09765625 C-11 13 -11 13 -14 12 C-12.64430408 7.93291225 -10.57463976 7.15973437 -7 4.875 C-3.31758316 2.67550109 -3.31758316 2.67550109 0 0 Z " fill="#F7F2E9" transform="translate(221,107)"/>
<path d="M0 0 C4.93054827 2.71683272 9.46284362 5.66657898 14 9 C10.87267952 12.30602451 7.93835641 14.74289154 4 17 C3.33030409 14.5424552 2.6641232 12.08405076 2 9.625 C1.80921875 8.92632812 1.6184375 8.22765625 1.421875 7.5078125 C0 2.2265625 0 2.2265625 0 0 Z " fill="#F7F3EC" transform="translate(188,74)"/>
<path d="M0 0 C-0.33 1.32 -0.66 2.64 -1 4 C-3.91517292 2.92598892 -5.77810176 2.22189824 -8 0 C-4.71303767 -0.79953138 -3.28976808 -1.09658936 0 0 Z " fill="#FEAC34" transform="translate(195,63)"/>
</svg>
